<svg version="1.1" xmlns="http://www.w3.org/2000/svg" xmlns:xlink="http://www.w3.org/1999/xlink" width="24" height="24" viewBox="264.5,570,24,24"><g data-paper-data="{&quot;layerid&quot;:&quot;document&quot;,&quot;name&quot;:&quot;document&quot;,&quot;stage&quot;:false,&quot;vgx&quot;:{&quot;signed&quot;:true,&quot;selected&quot;:false,&quot;unsigned&quot;:false,&quot;contained&quot;:false,&quot;visible&quot;:true,&quot;id&quot;:&quot;1eoz60k5u_1666300585821112&quot;,&quot;changeset&quot;:&quot;nuuyix10p_1666300585821113&quot;,&quot;staticid&quot;:&quot;h1an1iqj6_1666300585821114&quot;,&quot;name&quot;:&quot;document&quot;,&quot;altname&quot;:&quot;&quot;,&quot;owner&quot;:null,&quot;layer&quot;:true,&quot;class&quot;:&quot;item&quot;,&quot;type&quot;:&quot;default&quot;,&quot;ui&quot;:false,&quot;actor&quot;:false,&quot;props&quot;:{},&quot;locked&quot;:false,&quot;strokeScaling&quot;:true,&quot;container&quot;:false,&quot;layerid&quot;:&quot;document&quot;}}" id="document" fill-opacity="0" fill="#ffffff" fill-rule="nonzero" stroke="#000000" stroke-width="0" stroke-linecap="butt" stroke-linejoin="miter" stroke-miterlimit="10" stroke-dasharray="" stroke-dashoffset="0" font-family="none" font-weight="none" font-size="none" text-anchor="none" style="mix-blend-mode: normal"><rect x="7714.58333" y="11875" transform="scale(0.03429,0.048)" width="700" height="500" data-paper-data="{&quot;vgx&quot;:{&quot;signed&quot;:true,&quot;selected&quot;:false,&quot;unsigned&quot;:false,&quot;contained&quot;:false,&quot;visible&quot;:true,&quot;id&quot;:&quot;ovp3huow7_1666300586330234&quot;,&quot;changeset&quot;:&quot;sycha41ji_1666300586330235&quot;,&quot;staticid&quot;:&quot;heiolt8k9_1666300586330236&quot;,&quot;name&quot;:&quot;Shape&quot;,&quot;altname&quot;:&quot;&quot;,&quot;owner&quot;:null,&quot;layer&quot;:false,&quot;class&quot;:&quot;document&quot;,&quot;type&quot;:&quot;document&quot;,&quot;ui&quot;:false,&quot;actor&quot;:true,&quot;props&quot;:{},&quot;locked&quot;:false,&quot;strokeScaling&quot;:true,&quot;container&quot;:false},&quot;v_data&quot;:null}" id="Shape 1" vector-effect="non-scaling-stroke"/></g><g fill="none" fill-rule="nonzero" stroke-opacity="0" stroke="#000000" stroke-width="1" stroke-linecap="butt" stroke-linejoin="miter" stroke-miterlimit="10" stroke-dasharray="" stroke-dashoffset="0" font-family="none" font-weight="none" font-size="none" text-anchor="none" style="mix-blend-mode: normal"><g data-paper-data="{&quot;layerid&quot;:&quot;stage&quot;,&quot;name&quot;:&quot;stage&quot;,&quot;stage&quot;:false,&quot;vgx&quot;:{&quot;signed&quot;:true,&quot;selected&quot;:false,&quot;unsigned&quot;:false,&quot;contained&quot;:false,&quot;visible&quot;:true,&quot;id&quot;:&quot;mdq9mbpfx_1666300585822115&quot;,&quot;changeset&quot;:&quot;ndij46juq_1666300585822116&quot;,&quot;staticid&quot;:&quot;zd3wovax6_1666300585822117&quot;,&quot;name&quot;:&quot;stage&quot;,&quot;altname&quot;:&quot;&quot;,&quot;owner&quot;:null,&quot;layer&quot;:true,&quot;class&quot;:&quot;item&quot;,&quot;type&quot;:&quot;default&quot;,&quot;ui&quot;:false,&quot;actor&quot;:false,&quot;props&quot;:{},&quot;locked&quot;:false,&quot;strokeScaling&quot;:true,&quot;container&quot;:false,&quot;layerid&quot;:&quot;stage&quot;}}" id="stage"><g id="layer1 1"><g id="Group 1" fill="#000000" font-family="Roboto, system-ui, Noto, Helvetica, Arial, sans-serif" font-weight="400" font-size="14" text-anchor="start"/><g id="Group 1" fill="#000000" font-family="Roboto, system-ui, Noto, Helvetica, Arial, sans-serif" font-weight="400" font-size="14" text-anchor="start"/><g id="Group 1" fill="#000000" font-family="Roboto, system-ui, Noto, Helvetica, Arial, sans-serif" font-weight="400" font-size="14" text-anchor="start"/><g id="Group 1" fill="#000000" font-family="Roboto, system-ui, Noto, Helvetica, Arial, sans-serif" font-weight="400" font-size="14" text-anchor="start"/><g id="Group 1" fill="#000000" font-family="Roboto, system-ui, Noto, Helvetica, Arial, sans-serif" font-weight="400" font-size="14" text-anchor="start"/><g id="Group 1" fill="#000000" font-family="Roboto, system-ui, Noto, Helvetica, Arial, sans-serif" font-weight="400" font-size="14" text-anchor="start"/><g id="Group 1" fill="#000000" font-family="Roboto, system-ui, Noto, Helvetica, Arial, sans-serif" font-weight="400" font-size="14" text-anchor="start"/><g id="Group 1" fill="#000000" font-family="Roboto, system-ui, Noto, Helvetica, Arial, sans-serif" font-weight="400" font-size="14" text-anchor="start"/><g id="Group 1" fill="#000000" font-family="Roboto, system-ui, Noto, Helvetica, Arial, sans-serif" font-weight="400" font-size="14" text-anchor="start"/><g id="Group 1" fill="#000000" font-family="Roboto, system-ui, Noto, Helvetica, Arial, sans-serif" font-weight="400" font-size="14" text-anchor="start"/><g id="Group 1" fill="#000000" font-family="Roboto, system-ui, Noto, Helvetica, Arial, sans-serif" font-weight="400" font-size="14" text-anchor="start"/><g id="Group 1" fill="#000000" font-family="Roboto, system-ui, Noto, Helvetica, Arial, sans-serif" font-weight="400" font-size="14" text-anchor="start"/><g id="Group 1" fill="#000000" font-family="Roboto, system-ui, Noto, Helvetica, Arial, sans-serif" font-weight="400" font-size="14" text-anchor="start"/><g id="Group 1" fill="#000000" font-family="Roboto, system-ui, Noto, Helvetica, Arial, sans-serif" font-weight="400" font-size="14" text-anchor="start"/><g id="Group 1" fill="#000000" font-family="Roboto, system-ui, Noto, Helvetica, Arial, sans-serif" font-weight="400" font-size="14" text-anchor="start"/><g id="Group 1" fill="#ffffff"><path d="M283.88826,577.19876h-12.18126c-1.12873,0 -2.05149,-0.91864 -2.05149,-2.05149c0,-1.12873 0.91864,-2.05149 2.05149,-2.05149h12.18538c0.30484,0 0.54789,-0.24717 0.54789,-0.54789c0,-0.30484 -0.24717,-0.54789 -0.54789,-0.54789h-12.18538c-1.73429,0 -3.14727,1.41298 -3.14727,3.14727v13.70546c0,1.73429 1.41298,3.14727 3.14727,3.14727h12.18538c0.30484,0 0.54789,-0.24717 0.54789,-0.54789v-13.70546c-0.00412,-0.30072 -0.24717,-0.54789 -0.55201,-0.54789zM283.34037,590.90422h-11.63337c-1.12873,0 -2.05149,-0.91864 -2.05149,-2.05149v-11.31617c0.55201,0.47374 1.2688,0.7621 2.05149,0.7621h11.63337z" id="CompoundPath 1"/><path d="M271.88002,574.64882c-0.30484,0 -0.54789,0.24717 -0.54789,0.54789c0,0.30072 0.24717,0.54789 0.54789,0.54789h10.29042c0.30484,0 0.54789,-0.24717 0.54789,-0.54789c0,-0.30072 -0.24717,-0.54789 -0.54789,-0.54789z" id="Path 1"/><path d="M273.80793,588.50669c0.06179,0.0206 0.12358,0.03296 0.18538,0.03296c0.22657,0 0.43666,-0.14006 0.51493,-0.36251l0.66735,-1.86612h2.57055c0.0206,0 0.04531,0 0.06591,-0.00412l0.66735,1.87024c0.07827,0.22245 0.29248,0.36251 0.51493,0.36251c0.06179,0 0.12358,-0.01236 0.18538,-0.03296c0.28424,-0.10299 0.43254,-0.41607 0.32956,-0.70031l-2.4964,-6.99897v0c-0.00412,-0.01648 -0.01236,-0.03296 -0.0206,-0.04943c-0.00412,-0.00824 -0.00824,-0.01648 -0.01236,-0.02472c-0.00412,-0.00824 -0.00824,-0.01648 -0.01236,-0.02472c-0.00412,-0.00824 -0.01236,-0.01648 -0.01648,-0.02884c-0.00412,-0.00412 -0.00824,-0.01236 -0.01236,-0.01648c-0.00412,-0.00824 -0.01236,-0.01648 -0.0206,-0.02472c-0.00412,-0.00412 -0.00824,-0.01236 -0.01648,-0.01648c-0.00412,-0.00824 -0.01236,-0.01236 -0.0206,-0.0206c-0.00824,-0.00824 -0.01236,-0.01236 -0.0206,-0.0206c-0.00412,-0.00412 -0.01236,-0.00824 -0.01648,-0.01648c-0.00824,-0.00824 -0.01648,-0.01236 -0.02472,-0.0206c-0.00412,-0.00412 -0.01236,-0.00824 -0.01648,-0.01236c-0.00824,-0.00412 -0.01648,-0.01236 -0.02472,-0.01648c-0.00824,-0.00412 -0.01648,-0.00824 -0.02472,-0.01236c-0.00824,-0.00412 -0.01648,-0.00824 -0.02472,-0.01236c-0.01648,-0.00824 -0.03296,-0.01648 -0.04943,-0.0206v0h-0.00412c-0.01648,-0.00412 -0.03296,-0.00824 -0.04943,-0.01236c-0.00824,0 -0.01236,-0.00412 -0.0206,-0.00412c-0.01236,-0.00412 -0.0206,-0.00412 -0.03296,-0.00824c-0.00824,0 -0.01648,0 -0.02472,-0.00412c-0.00824,0 -0.0206,-0.00412 -0.02884,-0.00412c-0.00824,0 -0.01648,0 -0.02472,0c-0.00824,0 -0.01648,0 -0.02884,0c-0.00824,0 -0.0206,0 -0.02884,0.00412c-0.00824,0 -0.01648,0 -0.02472,0.00412c-0.01236,0 -0.0206,0.00412 -0.03296,0.00824c-0.00824,0 -0.01236,0.00412 -0.0206,0.00412c-0.01648,0.00412 -0.03296,0.00824 -0.04531,0.01236h-0.00412v0c-0.01648,0.00412 -0.03296,0.01236 -0.04943,0.0206c-0.00824,0.00412 -0.01648,0.00824 -0.02472,0.01236c-0.00824,0.00412 -0.01648,0.00824 -0.02472,0.01236c-0.00824,0.00412 -0.01648,0.01236 -0.02884,0.01648c-0.00412,0.00412 -0.01236,0.00824 -0.01648,0.01236c-0.00824,0.00824 -0.01648,0.01236 -0.02472,0.0206c-0.00412,0.00412 -0.01236,0.00824 -0.01648,0.01648c-0.00824,0.00824 -0.01236,0.01236 -0.0206,0.0206c-0.00824,0.00824 -0.01236,0.01236 -0.0206,0.0206c-0.00412,0.00412 -0.00824,0.01236 -0.01648,0.01648c-0.00824,0.00824 -0.01236,0.01648 -0.0206,0.02472c-0.00412,0.00412 -0.00824,0.01236 -0.01236,0.01648c-0.00412,0.00824 -0.01236,0.01648 -0.01648,0.02472c-0.00412,0.00824 -0.00824,0.01648 -0.01236,0.02472c-0.00412,0.00824 -0.00824,0.01648 -0.01236,0.02472c-0.00824,0.01648 -0.01648,0.03296 -0.0206,0.04943v0l-2.50463,6.99897c-0.09063,0.28836 0.05767,0.60144 0.34192,0.70443zM276.49794,582.61998l0.92688,2.59526h-1.85788z" id="CompoundPath 1"/></g></g></g></g></svg>